<?xml version="1.0" encoding="UTF-8"?>
<svg xmlns="http://www.w3.org/2000/svg" viewBox="0 0 1400 2900" font-family="'Noto Sans JP', 'Hiragino Sans', sans-serif">
  <defs>
    <linearGradient id="headerGrad" x1="0" y1="0" x2="1" y2="0">
      <stop offset="0%" stop-color="#1a365d"/><stop offset="100%" stop-color="#2c5282"/>
    </linearGradient>
    <linearGradient id="principleGrad" x1="0" y1="0" x2="0" y2="1">
      <stop offset="0%" stop-color="#e53e3e"/><stop offset="100%" stop-color="#c53030"/>
    </linearGradient>
    <linearGradient id="exceptionGrad" x1="0" y1="0" x2="0" y2="1">
      <stop offset="0%" stop-color="#38a169"/><stop offset="100%" stop-color="#2f855a"/>
    </linearGradient>
    <linearGradient id="exclusionGrad" x1="0" y1="0" x2="0" y2="1">
      <stop offset="0%" stop-color="#d69e2e"/><stop offset="100%" stop-color="#b7791f"/>
    </linearGradient>
    <linearGradient id="tsutatsuGrad" x1="0" y1="0" x2="0" y2="1">
      <stop offset="0%" stop-color="#3182ce"/><stop offset="100%" stop-color="#2b6cb0"/>
    </linearGradient>
    <linearGradient id="seireiGrad" x1="0" y1="0" x2="1" y2="0">
      <stop offset="0%" stop-color="#dd6b20"/><stop offset="100%" stop-color="#c05621"/>
    </linearGradient>
    <linearGradient id="bridgeGrad" x1="0" y1="0" x2="0" y2="1">
      <stop offset="0%" stop-color="#805ad5"/><stop offset="100%" stop-color="#553c9a"/>
    </linearGradient>
    <filter id="shadow" x="-2%" y="-2%" width="104%" height="104%">
      <feDropShadow dx="2" dy="3" stdDeviation="3" flood-opacity="0.15"/>
    </filter>
    <filter id="shadowLight" x="-1%" y="-1%" width="102%" height="102%">
      <feDropShadow dx="1" dy="2" stdDeviation="2" flood-opacity="0.1"/>
    </filter>
    <marker id="arrowDown" markerWidth="10" markerHeight="7" refX="5" refY="3.5" orient="auto">
      <polygon points="0 0, 10 3.5, 0 7" fill="#4a5568"/>
    </marker>
    <marker id="arrowRight" markerWidth="10" markerHeight="7" refX="5" refY="3.5" orient="auto">
      <polygon points="0 0, 10 3.5, 0 7" fill="#4a5568"/>
    </marker>
    <marker id="arrowGreen" markerWidth="10" markerHeight="7" refX="5" refY="3.5" orient="auto">
      <polygon points="0 0, 10 3.5, 0 7" fill="#38a169"/>
    </marker>
    <marker id="arrowRed" markerWidth="10" markerHeight="7" refX="5" refY="3.5" orient="auto">
      <polygon points="0 0, 10 3.5, 0 7" fill="#e53e3e"/>
    </marker>
    <marker id="arrowBlue" markerWidth="10" markerHeight="7" refX="5" refY="3.5" orient="auto">
      <polygon points="0 0, 10 3.5, 0 7" fill="#3182ce"/>
    </marker>
    <marker id="arrowOrange" markerWidth="10" markerHeight="7" refX="5" refY="3.5" orient="auto">
      <polygon points="0 0, 10 3.5, 0 7" fill="#dd6b20"/>
    </marker>
    <marker id="arrowPurple" markerWidth="10" markerHeight="7" refX="5" refY="3.5" orient="auto">
      <polygon points="0 0, 10 3.5, 0 7" fill="#805ad5"/>
    </marker>
  </defs>

  <rect width="1400" height="2900" fill="#f7fafc"/>

  <!-- ==================== TITLE ==================== -->
  <rect x="0" y="0" width="1400" height="90" fill="url(#headerGrad)"/>
  <text x="700" y="40" text-anchor="middle" fill="white" font-size="28" font-weight="700">法人税法上の株式等の評価損 ── 全体構造図</text>
  <text x="700" y="68" text-anchor="middle" fill="#cbd5e0" font-size="14">法律・政令・通達の三層構造と相互関係</text>


  <!-- ==================== SECTION 1: 法源の三層構造 ==================== -->
  <text x="50" y="130" fill="#1a365d" font-size="20" font-weight="700">1. 法源の三層構造</text>
  <line x1="50" y1="138" x2="280" y2="138" stroke="#ed8936" stroke-width="3"/>

  <!-- 凡例（左） -->
  <text x="50" y="175" fill="#718096" font-size="10">法的拘束力あり</text>
  <text x="50" y="245" fill="#718096" font-size="10">委任に基づく</text>
  <text x="50" y="315" fill="#718096" font-size="10">法的拘束力なし</text>
  <text x="50" y="328" fill="#e53e3e" font-size="10" font-weight="600">（事実上の拘束力）</text>

  <!-- 法律バンド -->
  <rect x="130" y="155" width="1220" height="55" rx="8" fill="url(#principleGrad)" filter="url(#shadow)"/>
  <text x="160" y="182" fill="white" font-size="16" font-weight="700">法人税法33条</text>
  <text x="160" y="200" fill="#fed7d7" font-size="11">1項: 原則損金不算入 ｜ 2項: 物損等の事実（→政令委任） ｜ 3項: 更生計画 ｜ 4項: 再生計画 ｜ 5項: 適用除外</text>

  <!-- 委任矢印 -->
  <line x1="700" y1="210" x2="700" y2="230" stroke="#dd6b20" stroke-width="2.5" marker-end="url(#arrowOrange)"/>
  <rect x="645" y="213" width="110" height="16" rx="4" fill="#feebc8"/>
  <text x="700" y="225" text-anchor="middle" fill="#c05621" font-size="10" font-weight="700">政令に委任</text>

  <!-- 政令バンド -->
  <rect x="130" y="235" width="1220" height="55" rx="8" fill="url(#seireiGrad)" filter="url(#shadow)"/>
  <text x="160" y="262" fill="white" font-size="16" font-weight="700">施行令68条1項2号</text>
  <text x="160" y="280" fill="#feebc8" font-size="11">イ: 価額が著しく低下 ｜ ロ: 資産状態悪化＋価額低下（二重要件） ｜ ハ: ロに準ずる特別の事実</text>

  <!-- 解釈指針矢印 -->
  <line x1="700" y1="290" x2="700" y2="310" stroke="#3182ce" stroke-width="2.5" marker-end="url(#arrowBlue)"/>
  <rect x="638" y="293" width="124" height="16" rx="4" fill="#bee3f8"/>
  <text x="700" y="305" text-anchor="middle" fill="#2b6cb0" font-size="10" font-weight="700">解釈指針（通達）</text>

  <!-- 通達バンド -->
  <rect x="130" y="315" width="1220" height="55" rx="8" fill="#ebf8ff" stroke="#3182ce" stroke-width="2"/>
  <text x="160" y="338" fill="#2b6cb0" font-size="14" font-weight="700">法人税基本通達</text>
  <rect x="300" y="325" width="70" height="24" rx="5" fill="url(#tsutatsuGrad)"/>
  <text x="335" y="341" text-anchor="middle" fill="white" font-size="10" font-weight="700">9-1-7</text>
  <rect x="380" y="325" width="70" height="24" rx="5" fill="#63b3ed"/>
  <text x="415" y="341" text-anchor="middle" fill="white" font-size="10" font-weight="700">9-1-8</text>
  <rect x="460" y="325" width="70" height="24" rx="5" fill="#e53e3e"/>
  <text x="495" y="341" text-anchor="middle" fill="white" font-size="10" font-weight="700">9-1-9</text>
  <rect x="540" y="325" width="80" height="24" rx="5" fill="url(#bridgeGrad)"/>
  <text x="580" y="341" text-anchor="middle" fill="white" font-size="10" font-weight="700">9-1-11</text>
  <rect x="630" y="325" width="70" height="24" rx="5" fill="url(#tsutatsuGrad)"/>
  <text x="665" y="341" text-anchor="middle" fill="white" font-size="10" font-weight="700">9-1-13</text>
  <rect x="710" y="325" width="70" height="24" rx="5" fill="url(#tsutatsuGrad)"/>
  <text x="745" y="341" text-anchor="middle" fill="white" font-size="10" font-weight="700">9-1-14</text>
  <text x="160" y="360" fill="#718096" font-size="10">国税庁長官通達。納税者への法的拘束力なし。課税庁の統一的処理基準として事実上の拘束力を有する。</text>


  <!-- ==================== SECTION 2: 法33条の規範構造 ==================== -->
  <text x="50" y="420" fill="#1a365d" font-size="20" font-weight="700">2. 法人税法33条の規範構造</text>
  <line x1="50" y1="428" x2="400" y2="428" stroke="#ed8936" stroke-width="3"/>

  <!-- 第1項：原則 -->
  <rect x="440" y="445" width="520" height="60" rx="8" fill="url(#principleGrad)" filter="url(#shadow)"/>
  <text x="700" y="472" text-anchor="middle" fill="white" font-size="16" font-weight="700">第1項【原則】評価損の損金不算入</text>
  <text x="700" y="492" text-anchor="middle" fill="#fed7d7" font-size="12">資産の評価換えによる帳簿価額の減額 → 損金不算入</text>

  <line x1="700" y1="505" x2="700" y2="535" stroke="#4a5568" stroke-width="2" marker-end="url(#arrowDown)"/>
  <text x="715" y="525" fill="#718096" font-size="11" font-style="italic">例外あり</text>

  <!-- 第2項 -->
  <rect x="100" y="540" width="360" height="80" rx="8" fill="url(#exceptionGrad)" filter="url(#shadow)"/>
  <text x="280" y="568" text-anchor="middle" fill="white" font-size="14" font-weight="700">第2項【例外1】物損等の事実</text>
  <text x="280" y="588" text-anchor="middle" fill="#c6f6d5" font-size="11">政令で定める事実（施行令68条）</text>
  <text x="280" y="606" text-anchor="middle" fill="#c6f6d5" font-size="11">＋ 損金経理 → 損金算入</text>

  <!-- 第3項 -->
  <rect x="520" y="540" width="360" height="80" rx="8" fill="url(#exceptionGrad)" filter="url(#shadow)"/>
  <text x="700" y="568" text-anchor="middle" fill="white" font-size="14" font-weight="700">第3項【例外2】更生計画認可</text>
  <text x="700" y="588" text-anchor="middle" fill="#c6f6d5" font-size="11">会社更生法に基づく評価換え</text>
  <text x="700" y="606" text-anchor="middle" fill="#c6f6d5" font-size="11">損金経理要件なし → 損金算入</text>

  <!-- 第4項 -->
  <rect x="940" y="540" width="360" height="80" rx="8" fill="url(#exceptionGrad)" filter="url(#shadow)"/>
  <text x="1120" y="568" text-anchor="middle" fill="white" font-size="14" font-weight="700">第4項【例外3】再生計画認可等</text>
  <text x="1120" y="588" text-anchor="middle" fill="#c6f6d5" font-size="11">再生計画認可 + 政令で定める評定</text>
  <text x="1120" y="606" text-anchor="middle" fill="#c6f6d5" font-size="11">申告要件あり（別表14(1)）</text>

  <!-- 集約線 → 5項 -->
  <line x1="280" y1="620" x2="280" y2="655" stroke="#4a5568" stroke-width="1.5" stroke-dasharray="6,3"/>
  <line x1="700" y1="620" x2="700" y2="655" stroke="#4a5568" stroke-width="1.5" stroke-dasharray="6,3"/>
  <line x1="1120" y1="620" x2="1120" y2="655" stroke="#4a5568" stroke-width="1.5" stroke-dasharray="6,3"/>
  <line x1="280" y1="655" x2="1120" y2="655" stroke="#4a5568" stroke-width="1.5" stroke-dasharray="6,3"/>
  <line x1="700" y1="655" x2="700" y2="680" stroke="#4a5568" stroke-width="2" marker-end="url(#arrowDown)"/>

  <!-- 第5項 -->
  <rect x="260" y="685" width="880" height="60" rx="8" fill="url(#exclusionGrad)" filter="url(#shadow)"/>
  <text x="700" y="710" text-anchor="middle" fill="white" font-size="14" font-weight="700">第5項【適用除外】完全支配関係法人の株式等</text>
  <text x="700" y="730" text-anchor="middle" fill="#fefcbf" font-size="11">清算中 / 解散見込み / 適格合併見込み → 第2〜4項を適用しない（施行令68条の3）</text>


  <!-- ==================== SECTION 3: 有価証券の分類（分岐ツリー） ==================== -->
  <text x="50" y="800" fill="#1a365d" font-size="20" font-weight="700">3. 有価証券の分類と適用要件（施行令68条1項2号）</text>
  <line x1="50" y1="808" x2="560" y2="808" stroke="#ed8936" stroke-width="3"/>

  <!-- Root node -->
  <rect x="560" y="825" width="280" height="45" rx="22" fill="#2d3748" filter="url(#shadow)"/>
  <text x="700" y="854" text-anchor="middle" fill="white" font-size="15" font-weight="700">有価証券</text>

  <!-- Branch lines -->
  <line x1="700" y1="870" x2="700" y2="900" stroke="#4a5568" stroke-width="2"/>
  <line x1="200" y1="900" x2="1200" y2="900" stroke="#4a5568" stroke-width="2"/>

  <!-- Branch 1: 売買目的 -->
  <line x1="200" y1="900" x2="200" y2="925" stroke="#4a5568" stroke-width="2" marker-end="url(#arrowDown)"/>
  <rect x="60" y="930" width="280" height="110" rx="8" fill="white" stroke="#e2e8f0" stroke-width="2" filter="url(#shadowLight)"/>
  <rect x="60" y="930" width="280" height="32" rx="8" fill="#805ad5"/>
  <rect x="60" y="954" width="280" height="8" fill="#805ad5"/>
  <text x="200" y="953" text-anchor="middle" fill="white" font-size="13" font-weight="700">売買目的有価証券</text>
  <text x="200" y="980" text-anchor="middle" fill="#4a5568" font-size="11">毎期時価評価（法61条の3）</text>
  <text x="200" y="998" text-anchor="middle" fill="#e53e3e" font-size="12" font-weight="600">ロ又はハのみ（イ適用なし）</text>
  <text x="200" y="1016" text-anchor="middle" fill="#3182ce" font-size="10">通達: 9-1-9, 9-1-11→9-1-7</text>
  <text x="200" y="1032" text-anchor="middle" fill="#718096" font-size="10">※市場価格変動だけでは不可</text>

  <!-- Branch 2: 市場有価証券等 -->
  <line x1="530" y1="900" x2="530" y2="925" stroke="#4a5568" stroke-width="2" marker-end="url(#arrowDown)"/>
  <rect x="380" y="930" width="300" height="110" rx="8" fill="white" stroke="#e2e8f0" stroke-width="2" filter="url(#shadowLight)"/>
  <rect x="380" y="930" width="300" height="32" rx="8" fill="#3182ce"/>
  <rect x="380" y="954" width="300" height="8" fill="#3182ce"/>
  <text x="530" y="953" text-anchor="middle" fill="white" font-size="12" font-weight="700">市場有価証券等（企業支配除く）</text>
  <text x="530" y="980" text-anchor="middle" fill="#4a5568" font-size="11">上場株式・店頭売買有価証券等</text>
  <text x="530" y="998" text-anchor="middle" fill="#38a169" font-size="12" font-weight="600">イ・ロ・ハ全て適用可</text>
  <text x="530" y="1016" text-anchor="middle" fill="#3182ce" font-size="10">通達: 9-1-7, 9-1-8</text>
  <text x="530" y="1032" text-anchor="middle" fill="#718096" font-size="10">※市場価格下落のみでも可（イ号）</text>

  <!-- Branch 3: 企業支配株式等 -->
  <line x1="870" y1="900" x2="870" y2="925" stroke="#4a5568" stroke-width="2" marker-end="url(#arrowDown)"/>
  <rect x="720" y="930" width="300" height="110" rx="8" fill="white" stroke="#e2e8f0" stroke-width="2" filter="url(#shadowLight)"/>
  <rect x="720" y="930" width="300" height="32" rx="8" fill="#dd6b20"/>
  <rect x="720" y="954" width="300" height="8" fill="#dd6b20"/>
  <text x="870" y="953" text-anchor="middle" fill="white" font-size="13" font-weight="700">企業支配株式等</text>
  <text x="870" y="980" text-anchor="middle" fill="#4a5568" font-size="11">20%以上保有の支配目的株式</text>
  <text x="870" y="998" text-anchor="middle" fill="#e53e3e" font-size="12" font-weight="600">ロ又はハのみ（イ適用なし）</text>
  <text x="870" y="1016" text-anchor="middle" fill="#3182ce" font-size="10">通達: 9-1-9, 9-1-11→9-1-7</text>
  <text x="870" y="1032" text-anchor="middle" fill="#718096" font-size="10">※上場でもイ号不可</text>

  <!-- Branch 4: 非上場株式等 -->
  <line x1="1200" y1="900" x2="1200" y2="925" stroke="#4a5568" stroke-width="2" marker-end="url(#arrowDown)"/>
  <rect x="1060" y="930" width="280" height="110" rx="8" fill="white" stroke="#e2e8f0" stroke-width="2" filter="url(#shadowLight)"/>
  <rect x="1060" y="930" width="280" height="32" rx="8" fill="#e53e3e"/>
  <rect x="1060" y="954" width="280" height="8" fill="#e53e3e"/>
  <text x="1200" y="953" text-anchor="middle" fill="white" font-size="13" font-weight="700">非上場株式等</text>
  <text x="1200" y="980" text-anchor="middle" fill="#4a5568" font-size="11">取引相場のない株式</text>
  <text x="1200" y="998" text-anchor="middle" fill="#e53e3e" font-size="12" font-weight="600">ロ又はハのみ（イ適用なし）</text>
  <text x="1200" y="1016" text-anchor="middle" fill="#3182ce" font-size="10">通達: 9-1-9, 9-1-11→9-1-7, 9-1-13, 9-1-14</text>
  <text x="1200" y="1032" text-anchor="middle" fill="#718096" font-size="10">※二重要件＋時価算定が論点</text>

  <!-- イロハ Legend -->
  <rect x="60" y="1060" width="1280" height="70" rx="8" fill="#edf2f7" stroke="#cbd5e0" stroke-width="1"/>
  <text x="100" y="1085" fill="#1a365d" font-size="14" font-weight="700">施行令68条1項2号の3類型</text>
  <rect x="100" y="1098" width="350" height="26" rx="6" fill="#ebf8ff" stroke="#3182ce" stroke-width="1.5"/>
  <text x="275" y="1116" text-anchor="middle" fill="#2b6cb0" font-size="12" font-weight="600">イ：価額が著しく低下</text>
  <rect x="480" y="1098" width="460" height="26" rx="6" fill="#fff5f5" stroke="#e53e3e" stroke-width="1.5"/>
  <text x="710" y="1116" text-anchor="middle" fill="#c53030" font-size="12" font-weight="600">ロ：資産状態の著しい悪化 ＋ 価額が著しく低下（二重要件）</text>
  <rect x="970" y="1098" width="350" height="26" rx="6" fill="#fffff0" stroke="#d69e2e" stroke-width="1.5"/>
  <text x="1145" y="1116" text-anchor="middle" fill="#975a16" font-size="12" font-weight="600">ハ：ロに準ずる特別の事実</text>


  <!-- ==================== SECTION 4: 通達の判定基準（並列カード） ==================== -->
  <text x="50" y="1190" fill="#1a365d" font-size="20" font-weight="700">4. 通達による判定基準</text>
  <line x1="50" y1="1198" x2="330" y2="1198" stroke="#ed8936" stroke-width="3"/>

  <!-- 通達9-1-7 カード -->
  <rect x="60" y="1215" width="620" height="210" rx="10" fill="white" stroke="#3182ce" stroke-width="2.5" filter="url(#shadow)"/>
  <rect x="60" y="1215" width="620" height="38" rx="10" fill="url(#tsutatsuGrad)"/>
  <rect x="60" y="1245" width="620" height="8" fill="url(#tsutatsuGrad)"/>
  <text x="370" y="1241" text-anchor="middle" fill="white" font-size="15" font-weight="700">通達9-1-7：「著しく低下」の判定</text>
  <text x="370" y="1258" text-anchor="middle" fill="#bee3f8" font-size="10">← 施行令68条1項2号イ・ロの判定基準</text>

  <!-- 50% box -->
  <rect x="85" y="1270" width="270" height="65" rx="6" fill="#fff5f5" stroke="#fc8181" stroke-width="1.5"/>
  <text x="220" y="1295" text-anchor="middle" fill="#c53030" font-size="20" font-weight="800">50%</text>
  <text x="220" y="1315" text-anchor="middle" fill="#4a5568" font-size="11">期末時価 &lt; 帳簿価額 × 50%</text>
  <text x="220" y="1330" text-anchor="middle" fill="#718096" font-size="10">（注1: 概ね50%相当額）</text>

  <!-- AND -->
  <text x="383" y="1305" text-anchor="middle" fill="#1a365d" font-size="22" font-weight="800">AND</text>

  <!-- 回復見込みなし box -->
  <rect x="410" y="1270" width="250" height="65" rx="6" fill="#fffff0" stroke="#ecc94b" stroke-width="1.5"/>
  <text x="535" y="1295" text-anchor="middle" fill="#975a16" font-size="14" font-weight="700">回復見込みなし</text>
  <text x="535" y="1315" text-anchor="middle" fill="#4a5568" font-size="11">近い将来の価額回復が</text>
  <text x="535" y="1330" text-anchor="middle" fill="#4a5568" font-size="11">見込まれないこと（実質基準）</text>

  <!-- 注記 -->
  <text x="85" y="1360" fill="#718096" font-size="10">注1: 「概ね50%」は原則として50%。多少の端数は許容</text>
  <text x="85" y="1377" fill="#718096" font-size="10">注2: 回復見込みの判断 → 過去の市場価格の推移、発行法人の業況等を総合的に判断</text>
  <text x="85" y="1394" fill="#718096" font-size="10">注3: 事後の株価回復があっても、損金算入済額の是正は不要</text>
  <rect x="85" y="1403" width="570" height="5" rx="3" fill="#ebf8ff"/>
  <text x="85" y="1418" fill="#805ad5" font-size="10" font-weight="600">★ 9-1-11のブリッジにより、本基準はロ号（非上場株式等）の判定にも準用される</text>

  <!-- 通達9-1-9 カード -->
  <rect x="720" y="1215" width="620" height="210" rx="10" fill="white" stroke="#e53e3e" stroke-width="2.5" filter="url(#shadow)"/>
  <rect x="720" y="1215" width="620" height="38" rx="10" fill="#e53e3e"/>
  <rect x="720" y="1245" width="620" height="8" fill="#e53e3e"/>
  <text x="1030" y="1241" text-anchor="middle" fill="white" font-size="15" font-weight="700">通達9-1-9：「資産状態の著しい悪化」</text>
  <text x="1030" y="1258" text-anchor="middle" fill="#fed7d7" font-size="10">← 施行令68条1項2号ロの前半要件</text>

  <!-- (1) 法的手続 -->
  <rect x="745" y="1270" width="270" height="80" rx="6" fill="#fff5f5" stroke="#fc8181" stroke-width="1.5"/>
  <text x="880" y="1290" text-anchor="middle" fill="#c53030" font-size="12" font-weight="700">(1) 法的手続の開始</text>
  <text x="880" y="1308" text-anchor="middle" fill="#4a5568" font-size="10">特別清算開始の命令</text>
  <text x="880" y="1323" text-anchor="middle" fill="#4a5568" font-size="10">破産手続開始の決定</text>
  <text x="880" y="1338" text-anchor="middle" fill="#4a5568" font-size="10">再生/更生手続開始の決定</text>

  <!-- OR -->
  <text x="1042" y="1310" text-anchor="middle" fill="#1a365d" font-size="20" font-weight="800">OR</text>

  <!-- (2) 純資産50% -->
  <rect x="1065" y="1270" width="250" height="80" rx="6" fill="#fff5f5" stroke="#fc8181" stroke-width="1.5"/>
  <text x="1190" y="1290" text-anchor="middle" fill="#c53030" font-size="12" font-weight="700">(2) 純資産価額の低下</text>
  <text x="1190" y="1313" text-anchor="middle" fill="#c53030" font-size="20" font-weight="800">50%↓</text>
  <text x="1190" y="1333" text-anchor="middle" fill="#4a5568" font-size="10">1株純資産が取得時比</text>
  <text x="1190" y="1348" text-anchor="middle" fill="#4a5568" font-size="10">50%以上下回る</text>

  <!-- 注記 -->
  <text x="745" y="1377" fill="#718096" font-size="10">※ 取得後「相当の期間」経過後に生じた事実であること</text>
  <text x="745" y="1394" fill="#718096" font-size="10">※ 債務超過の場合は負の金額を基礎として比較</text>
  <text x="745" y="1411" fill="#718096" font-size="10">※ 複数回取得の場合は加重平均で修正して比較</text>
  <text x="745" y="1422" fill="#553c9a" font-size="10" font-weight="600">★ ロ号の前半要件 → 後半（価額低下）は9-1-11経由で9-1-7を準用</text>


  <!-- ==================== SECTION 5: 施行令→通達 対応マップ ==================== -->
  <text x="50" y="1490" fill="#1a365d" font-size="20" font-weight="700">5. 施行令→通達の対応関係</text>
  <line x1="50" y1="1498" x2="380" y2="1498" stroke="#ed8936" stroke-width="3"/>

  <!-- イ号 → 通達 -->
  <rect x="60" y="1515" width="200" height="44" rx="8" fill="url(#seireiGrad)" filter="url(#shadowLight)"/>
  <text x="160" y="1537" text-anchor="middle" fill="white" font-size="13" font-weight="700">イ号（単一要件）</text>
  <text x="160" y="1553" text-anchor="middle" fill="#feebc8" font-size="10">市場有価証券等</text>

  <line x1="260" y1="1537" x2="330" y2="1537" stroke="#3182ce" stroke-width="2" marker-end="url(#arrowBlue)"/>

  <rect x="340" y="1520" width="90" height="30" rx="5" fill="url(#tsutatsuGrad)"/>
  <text x="385" y="1540" text-anchor="middle" fill="white" font-size="11" font-weight="700">9-1-7</text>
  <text x="385" y="1560" fill="#2b6cb0" font-size="9">50%＋回復不能</text>

  <rect x="450" y="1520" width="80" height="30" rx="5" fill="#63b3ed"/>
  <text x="490" y="1540" text-anchor="middle" fill="white" font-size="11" font-weight="700">9-1-8</text>
  <text x="490" y="1560" fill="#2b6cb0" font-size="9">時価の定義</text>

  <!-- ロ号 → 通達 -->
  <rect x="60" y="1580" width="200" height="70" rx="8" fill="url(#seireiGrad)" filter="url(#shadowLight)"/>
  <text x="160" y="1602" text-anchor="middle" fill="white" font-size="13" font-weight="700">ロ号（二重要件）</text>
  <text x="160" y="1618" text-anchor="middle" fill="#feebc8" font-size="10">非上場・企業支配等</text>
  <rect x="90" y="1626" width="140" height="18" rx="4" fill="rgba(255,255,255,0.2)"/>
  <text x="160" y="1639" text-anchor="middle" fill="#fefcbf" font-size="10" font-weight="700">AND（前半＋後半）</text>

  <line x1="260" y1="1600" x2="330" y2="1600" stroke="#e53e3e" stroke-width="2" marker-end="url(#arrowRed)"/>
  <text x="295" y="1593" text-anchor="middle" fill="#c53030" font-size="9" font-weight="600">前半</text>

  <rect x="340" y="1582" width="90" height="30" rx="5" fill="#e53e3e"/>
  <text x="385" y="1602" text-anchor="middle" fill="white" font-size="11" font-weight="700">9-1-9</text>
  <text x="385" y="1622" fill="#c53030" font-size="9">資産状態の悪化</text>

  <line x1="260" y1="1630" x2="330" y2="1630" stroke="#805ad5" stroke-width="2" marker-end="url(#arrowPurple)"/>
  <text x="295" y="1624" text-anchor="middle" fill="#553c9a" font-size="9" font-weight="600">後半</text>

  <rect x="340" y="1620" width="110" height="30" rx="5" fill="url(#bridgeGrad)"/>
  <text x="395" y="1640" text-anchor="middle" fill="white" font-size="11" font-weight="700">9-1-11</text>
  <text x="460" y="1640" fill="#553c9a" font-size="10" font-weight="600">→ 9-1-7を準用（ブリッジ）</text>

  <line x1="260" y1="1660" x2="330" y2="1660" stroke="#3182ce" stroke-width="1.5" stroke-dasharray="5,3" marker-end="url(#arrowBlue)"/>
  <text x="295" y="1654" text-anchor="middle" fill="#2b6cb0" font-size="9">時価</text>

  <rect x="340" y="1652" width="90" height="24" rx="5" fill="url(#tsutatsuGrad)"/>
  <text x="385" y="1669" text-anchor="middle" fill="white" font-size="10" font-weight="700">9-1-13</text>
  <rect x="440" y="1652" width="90" height="24" rx="5" fill="url(#tsutatsuGrad)"/>
  <text x="485" y="1669" text-anchor="middle" fill="white" font-size="10" font-weight="700">9-1-14</text>
  <text x="540" y="1669" fill="#2b6cb0" font-size="9">時価算定の基準</text>

  <!-- ハ号 → 通達 -->
  <rect x="60" y="1695" width="200" height="44" rx="8" fill="url(#seireiGrad)" filter="url(#shadowLight)"/>
  <text x="160" y="1717" text-anchor="middle" fill="white" font-size="13" font-weight="700">ハ号（受け皿）</text>
  <text x="160" y="1733" text-anchor="middle" fill="#feebc8" font-size="10">ロに準ずる事実</text>

  <line x1="260" y1="1717" x2="330" y2="1717" stroke="#718096" stroke-width="1.5" stroke-dasharray="6,3" marker-end="url(#arrowRight)"/>

  <rect x="340" y="1705" width="220" height="30" rx="5" fill="#edf2f7" stroke="#cbd5e0"/>
  <text x="450" y="1724" text-anchor="middle" fill="#718096" font-size="11">具体的な通達なし（個別判断）</text>

  <!-- 対応マップ凡例 -->
  <rect x="650" y="1515" width="700" height="230" rx="8" fill="white" stroke="#e2e8f0" stroke-width="1.5" filter="url(#shadowLight)"/>
  <text x="680" y="1540" fill="#1a365d" font-size="14" font-weight="700">通達間の準用・参照関係</text>

  <!-- 9-1-11 → 9-1-7 ブリッジ図解 -->
  <rect x="680" y="1555" width="100" height="35" rx="6" fill="url(#bridgeGrad)"/>
  <text x="730" y="1578" text-anchor="middle" fill="white" font-size="12" font-weight="700">9-1-11</text>
  <line x1="780" y1="1572" x2="840" y2="1572" stroke="#805ad5" stroke-width="2" stroke-dasharray="5,3" marker-end="url(#arrowPurple)"/>
  <text x="810" y="1564" text-anchor="middle" fill="#553c9a" font-size="9">準用</text>
  <rect x="850" y="1555" width="100" height="35" rx="6" fill="url(#tsutatsuGrad)"/>
  <text x="900" y="1578" text-anchor="middle" fill="white" font-size="12" font-weight="700">9-1-7</text>
  <text x="970" y="1578" fill="#4a5568" font-size="10">ロ号にもイ号と同じ50%基準を適用可能にする</text>

  <!-- 9-1-14 → 財基通 -->
  <rect x="680" y="1605" width="100" height="35" rx="6" fill="url(#tsutatsuGrad)"/>
  <text x="730" y="1628" text-anchor="middle" fill="white" font-size="12" font-weight="700">9-1-14</text>
  <line x1="780" y1="1622" x2="840" y2="1622" stroke="#3182ce" stroke-width="2" stroke-dasharray="5,3" marker-end="url(#arrowBlue)"/>
  <text x="810" y="1614" text-anchor="middle" fill="#2b6cb0" font-size="9">準用</text>
  <rect x="850" y="1605" width="150" height="35" rx="6" fill="#edf2f7" stroke="#cbd5e0"/>
  <text x="925" y="1628" text-anchor="middle" fill="#4a5568" font-size="11">財基通178〜189-7</text>
  <text x="1010" y="1628" fill="#718096" font-size="10">相続税の評価方法を法人税に準用</text>

  <!-- 9-1-13 4段階 -->
  <text x="680" y="1665" fill="#1a365d" font-size="12" font-weight="700">9-1-13: 非上場株式の時価 ── 4段階の優先順位</text>
  <circle cx="700" cy="1690" r="12" fill="#3182ce"/>
  <text x="700" y="1695" text-anchor="middle" fill="white" font-size="11" font-weight="700">1</text>
  <text x="718" y="1695" fill="#2d3748" font-size="10">売買実例</text>
  <line x1="785" y1="1690" x2="805" y2="1690" stroke="#cbd5e0" stroke-width="1.5" marker-end="url(#arrowRight)"/>
  <circle cx="820" cy="1690" r="12" fill="#3182ce"/>
  <text x="820" y="1695" text-anchor="middle" fill="white" font-size="11" font-weight="700">2</text>
  <text x="838" y="1695" fill="#2d3748" font-size="10">公開途上</text>
  <line x1="900" y1="1690" x2="920" y2="1690" stroke="#cbd5e0" stroke-width="1.5" marker-end="url(#arrowRight)"/>
  <circle cx="935" cy="1690" r="12" fill="#3182ce"/>
  <text x="935" y="1695" text-anchor="middle" fill="white" font-size="11" font-weight="700">3</text>
  <text x="953" y="1695" fill="#2d3748" font-size="10">類似法人比準</text>
  <line x1="1040" y1="1690" x2="1060" y2="1690" stroke="#cbd5e0" stroke-width="1.5" marker-end="url(#arrowRight)"/>
  <circle cx="1075" cy="1690" r="12" fill="#3182ce"/>
  <text x="1075" y="1695" text-anchor="middle" fill="white" font-size="11" font-weight="700">4</text>
  <text x="1093" y="1695" fill="#2d3748" font-size="10">純資産価額</text>

  <text x="680" y="1725" fill="#718096" font-size="10">※1→2→3→4の順に適用。上位の方法で算定可能な場合は下位不可</text>
  <text x="680" y="1740" fill="#805ad5" font-size="10" font-weight="600">※9-1-14特例: (4)の純資産価額は財基通178〜189-7の方法で計算可（実務上多用）</text>


  <!-- ==================== SECTION 6: 判定フロー ==================== -->
  <text x="50" y="1810" fill="#1a365d" font-size="20" font-weight="700">6. 評価損計上の判定フロー（総合）</text>
  <line x1="50" y1="1818" x2="420" y2="1818" stroke="#ed8936" stroke-width="3"/>

  <!-- Step 1 -->
  <rect x="400" y="1840" width="600" height="44" rx="22" fill="#2d3748" filter="url(#shadow)"/>
  <text x="700" y="1868" text-anchor="middle" fill="white" font-size="14" font-weight="700">Step 1: 有価証券の分類 → イ / ロ / ハ の適用範囲を特定</text>

  <line x1="700" y1="1884" x2="700" y2="1910" stroke="#4a5568" stroke-width="2" marker-end="url(#arrowDown)"/>

  <!-- Step 2 -->
  <rect x="300" y="1915" width="800" height="44" rx="22" fill="#e53e3e" filter="url(#shadow)"/>
  <text x="700" y="1943" text-anchor="middle" fill="white" font-size="14" font-weight="700">Step 2:【ロ号のみ】資産状態の著しい悪化を確認（通達9-1-9）</text>

  <line x1="700" y1="1959" x2="700" y2="1985" stroke="#4a5568" stroke-width="2" marker-end="url(#arrowDown)"/>
  <line x1="1100" y1="1937" x2="1220" y2="1937" stroke="#e53e3e" stroke-width="2" marker-end="url(#arrowRed)"/>
  <text x="1240" y="1942" fill="#e53e3e" font-size="12" font-weight="700">非該当 → 計上不可</text>

  <!-- Step 3 -->
  <rect x="300" y="1990" width="800" height="44" rx="22" fill="url(#tsutatsuGrad)" filter="url(#shadow)"/>
  <text x="700" y="2018" text-anchor="middle" fill="white" font-size="14" font-weight="700">Step 3: 50%基準の充足を確認（イ→9-1-7 / ロ→9-1-11が9-1-7準用）</text>

  <line x1="700" y1="2034" x2="700" y2="2060" stroke="#4a5568" stroke-width="2" marker-end="url(#arrowDown)"/>
  <line x1="1100" y1="2012" x2="1220" y2="2012" stroke="#e53e3e" stroke-width="2" marker-end="url(#arrowRed)"/>
  <text x="1240" y="2017" fill="#e53e3e" font-size="12" font-weight="700">不充足 → 計上不可</text>

  <!-- Step 4 -->
  <rect x="300" y="2065" width="800" height="44" rx="22" fill="#805ad5" filter="url(#shadow)"/>
  <text x="700" y="2093" text-anchor="middle" fill="white" font-size="14" font-weight="700">Step 4: 回復可能性の否定（9-1-7注2: 業況等を総合判断）</text>

  <line x1="700" y1="2109" x2="700" y2="2135" stroke="#4a5568" stroke-width="2" marker-end="url(#arrowDown)"/>
  <line x1="1100" y1="2087" x2="1220" y2="2087" stroke="#e53e3e" stroke-width="2" marker-end="url(#arrowRed)"/>
  <text x="1240" y="2092" fill="#e53e3e" font-size="12" font-weight="700">回復見込あり → 計上不可</text>

  <!-- Step 5 -->
  <rect x="300" y="2140" width="800" height="44" rx="22" fill="url(#exclusionGrad)" filter="url(#shadow)"/>
  <text x="700" y="2168" text-anchor="middle" fill="white" font-size="14" font-weight="700">Step 5: 適用除外の確認（法33条5項 → 完全支配関係 / 施行令68条の3）</text>

  <line x1="700" y1="2184" x2="700" y2="2210" stroke="#4a5568" stroke-width="2" marker-end="url(#arrowDown)"/>
  <line x1="1100" y1="2162" x2="1220" y2="2162" stroke="#e53e3e" stroke-width="2" marker-end="url(#arrowRed)"/>
  <text x="1240" y="2167" fill="#e53e3e" font-size="12" font-weight="700">該当 → 計上不可</text>

  <!-- Step 6 -->
  <rect x="300" y="2215" width="800" height="44" rx="22" fill="url(#seireiGrad)" filter="url(#shadow)"/>
  <text x="700" y="2243" text-anchor="middle" fill="white" font-size="14" font-weight="700">Step 6: 損金経理の実施（確定決算で会計上の減損処理が前提）</text>

  <line x1="700" y1="2259" x2="700" y2="2290" stroke="#38a169" stroke-width="3" marker-end="url(#arrowGreen)"/>
  <line x1="1100" y1="2237" x2="1220" y2="2237" stroke="#e53e3e" stroke-width="2" marker-end="url(#arrowRed)"/>
  <text x="1240" y="2242" fill="#e53e3e" font-size="12" font-weight="700">未実施 → 計上不可</text>

  <!-- 結果 -->
  <rect x="350" y="2295" width="700" height="55" rx="10" fill="url(#exceptionGrad)" filter="url(#shadow)"/>
  <text x="700" y="2320" text-anchor="middle" fill="white" font-size="18" font-weight="800">評価損の損金算入</text>
  <text x="700" y="2340" text-anchor="middle" fill="#c6f6d5" font-size="12">限度額 = 評価換え直前の帳簿価額 − 事業年度終了時の価額（法33条2項）</text>

  <!-- フロー凡例 -->
  <rect x="60" y="2375" width="1280" height="75" rx="8" fill="#edf2f7" stroke="#cbd5e0" stroke-width="1"/>
  <text x="100" y="2400" fill="#1a365d" font-size="14" font-weight="700">ステップの色 = 法源を示す</text>
  <rect x="100" y="2412" width="14" height="14" rx="3" fill="#2d3748"/>
  <text x="122" y="2424" fill="#4a5568" font-size="11">施行令（有価証券の分類）</text>
  <rect x="340" y="2412" width="14" height="14" rx="3" fill="#e53e3e"/>
  <text x="362" y="2424" fill="#4a5568" font-size="11">ロ号固有（資産悪化 / 通達9-1-9）</text>
  <rect x="600" y="2412" width="14" height="14" rx="3" fill="url(#tsutatsuGrad)"/>
  <text x="622" y="2424" fill="#4a5568" font-size="11">通達（9-1-7 / 50%基準）</text>
  <rect x="100" y="2432" width="14" height="14" rx="3" fill="#805ad5"/>
  <text x="122" y="2444" fill="#4a5568" font-size="11">実質判断（回復可能性）</text>
  <rect x="340" y="2432" width="14" height="14" rx="3" fill="url(#exclusionGrad)"/>
  <text x="362" y="2444" fill="#4a5568" font-size="11">適用除外（法律＋政令）</text>
  <rect x="600" y="2432" width="14" height="14" rx="3" fill="url(#seireiGrad)"/>
  <text x="622" y="2444" fill="#4a5568" font-size="11">手続要件（損金経理）</text>
  <text x="850" y="2444" fill="#718096" font-size="10">※ イ号はStep 2をスキップ。ロ号は全Step必須。</text>


  <!-- ==================== FOOTER ==================== -->
  <rect x="0" y="2500" width="1400" height="80" fill="url(#headerGrad)"/>
  <text x="700" y="2532" text-anchor="middle" fill="white" font-size="14" font-weight="600">法人税法上の株式等の評価損 ── 法律・政令・通達の三層構造図</text>
  <text x="700" y="2555" text-anchor="middle" fill="#a0aec0" font-size="11">2026年2月7日 ｜ 法令基準日: 令和7年4月1日現在 ｜ Claude Opus 4.6 Deep Research</text>

</svg>
